<?xml version="1.0" encoding="utf-8"?>
<!-- Generator: Adobe Illustrator 16.0.0, SVG Export Plug-In . SVG Version: 6.00 Build 0)  -->
<!DOCTYPE svg PUBLIC "-//W3C//DTD SVG 1.1//EN" "http://www.w3.org/Graphics/SVG/1.1/DTD/svg11.dtd">
<svg version="1.1" id="Layer_1" xmlns="http://www.w3.org/2000/svg" xmlns:xlink="http://www.w3.org/1999/xlink" x="0px" y="0px"
	 width="281.2px" height="191px" viewBox="0 0 281.2 191" style="enable-background:new 0 0 281.2 191;" xml:space="preserve">
<g>
	<path style="fill-rule:evenodd;clip-rule:evenodd;fill:#EA4F2E;" d="M199.1,89.8c-1,2.4-2.8,4.1-4.5,5.9
		c-16.7,18.5-36.6,32.9-57.3,46.4c-1,0.7-2.1,1.6-3.1-0.1c-1.9-3.3-3.9-6.6-6.2-10.5c1.9,0,3.1,0.1,4.3,0c2.6-0.2,4.3-1.5,4.3-4.2
		c0-2.7-1.7-4-4.4-4c-4,0-8,0-12-0.1c-2.9,0-5.4-0.9-5.4-4.3c0-3.3,2.4-4,5.1-4.1c1.1,0,2.3,0,3.4-0.1c2.4-0.3,4.1-1.6,4.1-4
		c0-2.6-1.7-4-4.4-4.1c-4.2-0.1-8.5-0.3-12.7-0.3c-2.8,0-5.1-0.6-5.2-3.9c0-3,1.9-4.1,4.7-4.2c1.6,0,3.2-0.3,4.9-0.3
		c2.9,0.1,4.7-1,4.7-4c0-2.9-2-4.1-4.7-4.2c-5.4-0.1-10.8-0.1-16.1-0.2c-1,0-2.1,0.1-3-0.2c-1.6-0.5-2.4-1.7-2.5-3.4
		c-0.1-1.8,0.6-3.2,2.3-4c0.8-0.4,1.7-0.5,2.5-0.6c2.3-0.4,5.4,1.1,6.6-0.7c0.8-1.3-0.9-4.2-1.4-6.3c-2.8-10.8-4.1-21.6,0.2-32.4
		c0.9-1.6,2.5-1.5,4-1.5c2.9-0.1,5.8-0.1,8.6,0c3.9,0.1,7.5-0.8,10.8-2.8c7.3-4.4,15.2-4.6,23.3-3.5c0.8,0.4,1.3,1,1.3,2
		c-0.9,1.4-2.5,1.5-3.9,1.9C129.1,43.6,122.9,64.3,135,79c6.2,7.5,18.2,10.4,28.2,7c9.1-3.2,15.9-12.8,16.2-22.4
		c0.1-3.7-0.4-7.2-1.7-10.7c-0.5-1.3-1.3-2.5-0.5-3.9c2.5-0.4,3.9,1.5,5.4,2.9c8.2,7.5,14,16.6,16.9,27.4
		C200.4,82.7,200.6,86.3,199.1,89.8z"/>
	<path style="fill-rule:evenodd;clip-rule:evenodd;fill:#1BB099;" d="M150.2,34.8c-3.6,0-7.2-0.2-10.9,0c-3.4,0.1-6.8,0.4-9.7,2.3
		c-5.5,3.7-11.6,4.9-18.2,4.6c-2.7-0.1-5.5,0.1-8.2,0.2c-7-0.7-14-0.2-21-0.3c-2.8-0.1-5.5,0-8.3-0.1c-2.4-0.1-4-1.4-4.1-4
		c-0.1-2.6,1.6-3.8,3.9-4.2c1-0.2,2-0.1,3-0.1c9,0,18,0.1,27,0c3.6,0,6-1.8,5.7-4.4c-0.4-3.3-2.9-4-5.8-3.9c-9.4,0-18.8,0-28.2,0
		c-2.9,0-5.3-0.7-5.6-4.1c-0.2-2.7,1.9-4.2,5.8-4.3c0.6,0,1.3,0,1.9,0c8.3,0,16.5,0,24.8,0c0.8,0,1.5,0,2.3,0c3,0,5-1.2,4.9-4.3
		c-0.1-2.9-2.1-4-4.9-4c-9.1,0-18.3,0-27.4,0c-1,0-2,0.1-3-0.1C71.7,8,69.8,6.7,69.9,4c0.1-2.7,1.9-4,4.5-4C80.2,0,86,0,91.7,0
		c7.6,0,15.3,0,22.9,0c4.7,0,9.2,1,13.2,3.6c3.7,2.4,7.7,3.3,12.1,3.3c9.1,0.1,18.2-0.6,27.3,1.4c28.3,6.2,47.9,37,40.9,64.7
		c-1.2,4.6-2.9,9-6,12.8c-2.4-0.4-1.7-2.4-1.8-3.8c-0.3-3.3,0.4-6.7-0.5-10c-0.4-0.8-0.7-1.6-0.9-2.5c-4.1-19-17-28.6-35.1-32.4
		c-0.5-0.1-1-0.2-1.5-0.3c-0.9-0.3-1.8-0.4-2.8-0.4c-1.2,0-2.4,0-3.5-0.3C154.2,35.5,152,35.9,150.2,34.8z"/>
	<path style="fill-rule:evenodd;clip-rule:evenodd;fill:#153142;" d="M250.9,174.3c-2.1,4.5-4.5,8.9-6.3,13.6
		c-1,2.4-2.5,2.3-4.4,2.3c-2.3,0.1-2.2-1.7-2.6-3c-1.5-5.1-2.9-10.1-5.1-15.1c-0.5,5.2-1,10.3-1.4,15.5c-0.1,1.7-0.5,2.6-2.6,2.6
		c-8.6,0.2-8.6,0.4-7.8-8.3c0.7-8,1.4-15.9,2-23.9c0.2-2.3,0.8-3.5,3.5-3.3c3.8,0.3,8.8-1.2,11.3,0.7c2.5,1.9,2.5,7,3.7,10.7
		c0.4,1.3,0.7,2.6,1.4,5c2.3-5.1,4.3-9.3,6.1-13.6c0.8-2,1.8-3,4.1-2.8c2,0.2,4,0,6,0c6.2,0,6.2,0,5.7,6.3
		c-0.7,8.6-1.6,17.2-2.2,25.8c-0.2,2.5-0.9,3.4-3.6,3.3c-7.6-0.1-7.6,0-7.1-7.5c0.1-1.2,0.1-2.5,0.1-3.7c0.6-1.7,0.3-3.4,0.1-5.1
		c0-0.1,0.3-0.6-0.2-0.4C251.4,173.7,251.2,174.1,250.9,174.3z"/>
	<path style="fill-rule:evenodd;clip-rule:evenodd;fill:#153142;" d="M108.2,173.6c-2.2,4.8-4.6,9.4-6.5,14.3
		c-0.9,2.3-2.5,2.3-4.4,2.4c-2.3,0.1-2.2-1.7-2.6-3c-1.5-5.1-2.9-10.2-5.1-15.2c-0.5,5.3-1.1,10.5-1.5,15.8c-0.1,2-0.9,2.4-2.7,2.4
		c-8.5,0.2-8.4,0.3-7.6-8.4c0.7-7.8,1.4-15.7,1.9-23.5c0.2-2.5,0.8-3.8,3.7-3.5c3.8,0.4,8.7-1.5,11.3,0.7c2.4,2,2.4,6.8,3.4,10.4
		c0.4,1.4,0.8,2.8,1.4,5.2c2.3-5.2,4.4-9.5,6.3-13.9c0.7-1.7,1.6-2.6,3.6-2.4c2.1,0.2,4.3,0,6.4,0c6.2,0,6.2,0,5.7,6
		c-0.7,8.7-1.6,17.4-2.2,26.1c-0.2,2.5-1,3.3-3.6,3.3c-7.6-0.1-7.6,0-7-7.5c0.3-3.2,0.5-6.5,0.8-9.7
		C108.4,171.5,108.8,173.6,108.2,173.6z"/>
	<path style="fill-rule:evenodd;clip-rule:evenodd;fill:#153142;" d="M19,190.8C8,190.8,1,185,0.1,176.1c-1-9.8,5.5-19,15.1-21.2
		c8.6-2,15.7,0.2,19.4,5.9c1.6,2.5,2.1,4.4-1.5,5.4c-1.1,0.3-2.1,0.8-3.1,1.4c-2,1.1-3.4,1.4-5-1.2c-2.3-3.6-7.2-3.3-10.8,0
		c-3.6,3.3-4.1,9.3-0.9,12.5c3,3.1,7.4,3,10.7-0.1c0.9-0.8,1-3,2.8-2.3c2.6,1.1,5.2,2.3,7.7,3.8c0.7,0.4-0.3,1.5-0.8,2.3
		C30,188.2,24.5,190.6,19,190.8z"/>
	<path style="fill-rule:evenodd;clip-rule:evenodd;fill:#153142;" d="M132.9,154.8c5.7,0,5.6,0,5.1,5.5c-0.9,9.1-1.7,18.2-2.4,27.3
		c-0.2,2.1-0.9,2.6-2.9,2.6c-8.3,0.1-8.3,0.2-7.5-8.2c0.7-7.2,1.3-14.4,1.8-21.7C127.4,154.9,127.4,154.8,132.9,154.8z"/>
	<path style="fill-rule:evenodd;clip-rule:evenodd;fill:#163142;" d="M272.9,190.2c-1.3,0-2.3-0.1-3.3,0c-1.6,0.1-2.3-0.4-2.1-2.1
		c1-10.5,1.9-20.9,2.8-31.4c0.1-0.8-0.1-1.9,1.3-1.9c2.9,0,5.8-0.1,8.6,0c1.4,0,1,1.2,0.9,2c-0.9,10.5-1.7,20.9-2.8,31.4
		C277.8,192.3,274.4,189.2,272.9,190.2z"/>
	<path style="fill-rule:evenodd;clip-rule:evenodd;fill:#AB3922;" d="M162.4,36.1c18.9,2.6,33.7,14,37.5,32.9
		c0.1,0.6,0.4,1.2,0.6,1.7c0.5,6.2,1.3,12.3-0.7,18.4c-0.2,0.2-0.5,0.5-0.7,0.7c0.7-17.9-8.5-30.5-21.9-40.8
		c-0.7,0.1-1.2-0.3-1.6-0.8c-3.8-4.7-8.3-8.5-14.1-10.5c-0.5-0.2-0.8-0.6-0.9-1.1C160.9,35.7,161.6,35.7,162.4,36.1z"/>
	<path style="fill-rule:evenodd;clip-rule:evenodd;fill:#39AC96;" d="M199.8,89.1c1.3-6.1,1-12.2,0.7-18.4c1.8,3.4,0.4,7,0.9,10.5
		c0.2,1.5-0.7,3.3,0.8,4.6C201.7,87.1,201,88.3,199.8,89.1z"/>
	<path style="fill-rule:evenodd;clip-rule:evenodd;fill:#E0E8D7;" d="M179.6,168.4c-1.4,2.1,0,4.6-0.8,6.8c-0.5,0.5-0.9,0.9-1.4,1.3
		c0.2-2.7,0.5-5.3,0.7-8C178.5,168.5,179,168.5,179.6,168.4z"/>
	<path style="fill-rule:evenodd;clip-rule:evenodd;fill:#C4CDC4;" d="M250.9,174.3c0-1,0.4-1.8,1.6-2.9c0.2,2.8,0.2,5.2-0.7,7.6
		C251.1,177.5,252.3,175.7,250.9,174.3z"/>
	<path style="fill-rule:evenodd;clip-rule:evenodd;fill:#9FA4A0;" d="M108.2,173.6c0-1,0.2-2.1,1.3-2.2c0.5,0,0.2,1,0,1.6
		C109.1,173.2,108.7,173.4,108.2,173.6z"/>
	<path style="fill-rule:evenodd;clip-rule:evenodd;fill:none;" d="M160.8,36.7c7.1,1.9,12.3,6.3,16.4,12.3c3.7,8,4.8,16,0.9,24.3
		c-5.3,11.4-17.5,17.4-29.9,14.7c-11.5-2.5-20.3-13.3-20.5-25.2c-0.2-12.4,8.1-23,20.3-26c1-0.2,2-0.4,2.9-0.6
		c1.1-0.9,2.4-0.6,3.6-0.7c1.4,0.2,2.8,0.5,4.2,0.4C159.5,35.9,160.2,36.2,160.8,36.7z"/>
	<path style="fill-rule:evenodd;clip-rule:evenodd;fill:#986D59;" d="M154.8,36c-1.3,0-2.6,0.1-3.8,0.1c-0.2-0.4-0.5-0.9-0.7-1.3
		c2.1-0.2,4.2-0.4,6.2,0.5C156,36,155.2,35.7,154.8,36z"/>
	<path style="fill-rule:evenodd;clip-rule:evenodd;fill:#B6523E;" d="M154.8,36c0.5-0.2,1.1-0.4,1.6-0.7c1.2,0.1,2.4,0.1,3.6,0.2
		c0.1,0.7-0.1,1.1-0.9,0.7C157.6,36.2,156.2,36.1,154.8,36z"/>
	<path style="fill-rule:evenodd;clip-rule:evenodd;fill:#A35844;" d="M159.1,36.3c0.3-0.2,0.6-0.5,0.9-0.7c0.9-0.1,1.7-0.1,2.4,0.5
		c-0.5,0.2-1,0.4-1.6,0.7C160.2,36.6,159.7,36.4,159.1,36.3z"/>
	<path style="fill-rule:evenodd;clip-rule:evenodd;fill:#153142;" d="M178,168.5c-1.4-7.5-5.7-12.1-13.2-13.3
		c-6.3-1-12.7-0.2-19.1-0.4c-2.1-0.1-1.7,1.5-1.8,2.6c-0.9,10.1-1.8,20.2-2.7,30.2c-0.2,1.9,0.3,2.7,2.4,2.6c4.2-0.2,8.5,0,12.8,0
		c9.9,0,17.4-3.9,21-13.6C178.1,173.9,180.2,171.4,178,168.5z M164.8,177.1c-2.2,3-7,4.4-10.9,3.4c-1.2-0.3-1.2-0.9-1-1.9
		c0.2-1.2,0.3-2.5,0.4-3.7c0,0-0.1,0-0.1,0c0.3-2.7,0.6-5.5,0.8-8.2c0.1-1.7,0.6-2.5,2.4-2.4c3.6,0.1,7.5-0.4,9.5,3.6
		C167.6,171.1,166.9,174.3,164.8,177.1z"/>
	<path style="fill-rule:evenodd;clip-rule:evenodd;fill:#153142;" d="M216.9,161.8c-3.4-5.7-11.4-8.7-19.2-7.3
		c-8.3,1.4-13.7,6.2-16.7,13.9c-1.7,2.1-1.6,4.4-0.8,6.8c0.9,5.5,2.9,10.3,8.1,13.2c8.1,4.5,20.1,2.5,26.1-4.5
		C219.8,177.7,220.8,168.5,216.9,161.8z M199.1,181.1c-4.2,0-7.5-3.3-7.5-7.7c0-5.2,4.1-9.5,9-9.5c4.3,0,7.4,3.2,7.5,7.6
		C208.2,176.8,204,181.2,199.1,181.1z"/>
	<path style="fill-rule:evenodd;clip-rule:evenodd;fill:#153142;" d="M64.6,155.3c-7.7-2.4-14.9-1.1-21.1,4
		c-9.3,7.6-8.9,23,0.8,28.7c6.9,4.1,14.2,3.7,21.1,0c6.8-3.6,10-9.5,10.1-15.2C75.7,163.3,71.7,157.5,64.6,155.3z M55.4,181.1
		c-4.3-0.1-7.4-3.4-7.4-7.8c0-5.2,4.2-9.5,9.2-9.4c4.3,0.1,7.4,3.3,7.3,7.8C64.5,176.9,60.3,181.2,55.4,181.1z"/>
</g>
</svg>
